<svg height="511pt" viewBox="0 0 511.99922 511" width="511pt" xmlns="http://www.w3.org/2000/svg"><path d="m506.347656 505.777344c7.535156-7.53125 7.535156-19.746094 0-27.28125l-64.359375-64.363282-27.28125 27.28125 64.363281 64.363282c7.53125 7.535156 19.746094 7.535156 27.277344 0zm0 0" fill="#ffc14f"/><path d="m400.605469 477.894531c0 18.523438-15.011719 33.53125-33.535157 33.53125h-333.539062c-18.523438 0-33.53125-14.996093-33.53125-33.53125 0-84.433593 68.40625-153.234375 153.226562-153.234375h94.152344c84.808594 0 153.226563 68.800782 153.226563 153.234375zm0 0" fill="#7c3f2c"/><path d="m400.605469 477.894531c0 18.523438-15.011719 33.53125-33.535157 33.53125h-302.355468c-18.523438 0-33.53125-14.996093-33.53125-33.53125 0-31.535156 9.542968-60.890625 25.914062-85.285156 15.757813-23.484375 37.835938-42.378906 63.832032-54.230469 19.335937-8.804687 40.820312-13.71875 63.480468-13.71875h62.96875c13.980469 0 27.492188 1.871094 40.351563 5.371094h.011719c21.734374 5.914062 41.523437 16.488281 58.25 30.582031 33.417968 28.136719 54.613281 70.289063 54.613281 117.28125zm0 0" fill="#954c35"/><path d="m279.613281 328.046875-79.3125 100.371094-79.296875-100.371094c10.382813-2.214844 21.160156-3.386719 32.222656-3.386719h94.152344c11.058594 0 21.851563 1.171875 32.234375 3.386719zm0 0" fill="#7c3f2c"/><path d="m138.753906 210.292969c0 21.84375-17.710937 39.550781-39.554687 39.550781s-39.550781-17.707031-39.550781-39.550781 17.707031-39.550781 39.550781-39.550781 39.554687 17.707031 39.554687 39.550781zm0 0" fill="#e3a76f"/><path d="m336.800781 210.300781c0 21.84375-17.707031 39.550781-39.550781 39.550781-21.847656 0-39.554688-17.707031-39.554688-39.550781 0-21.847656 17.707032-39.554687 39.554688-39.554687 21.84375 0 39.550781 17.707031 39.550781 39.554687zm0 0" fill="#e3a76f"/><path d="m303.136719 140.71875v97.757812c0 28.386719-19.726563 54.105469-42.710938 72.710938-15.777343 12.785156-33.105469 22.222656-46.609375 26.871094-6.164062 2.117187-11.527344 3.253906-15.589844 3.253906-25.988281-.011719-104.914062-46.050781-104.914062-102.835938v-97.757812c0-57.941406 46.972656-104.914062 104.914062-104.914062 5.300782 0 10.507813.394531 15.589844 1.152343 50.550782 7.527344 89.320313 51.121094 89.320313 103.761719zm0 0" fill="#e3a76f"/><path d="m303.136719 140.71875v97.757812c0 28.386719-19.726563 54.105469-42.710938 72.710938-15.777343 12.785156-33.105469 22.222656-46.609375 26.871094-33.179687-11.433594-89.320312-51.683594-89.320312-99.582032v-97.757812c0-52.640625 38.773437-96.234375 89.320312-103.761719 50.550782 7.527344 89.320313 51.121094 89.320313 103.761719zm0 0" fill="#f2bb88"/><path d="m311.660156 113.253906-191.613281.175782-31.191406.03125 42.160156-102.53125c3.417969-8.324219 10.496094-12.285157 17.097656-9.570313l10.125 4.167969 2.453125 1.007812c25.828125 10.621094 53.3125 10.632813 79.144532.007813l12.660156-5.195313c6.601562-2.714844 13.679687 1.246094 17.097656 9.574219zm0 0" fill="#954c35"/><path d="m328.226562 372.152344-17.191406-12.796875c-6.632812-4.9375-16.152344-1.164063-17.597656 6.984375l-2.746094 15.4375c-.632812 3.59375-2.992187 6.652344-6.316406 8.167968l-76.984375 35.226563-7.089844 3.246094-7.085937-3.246094-76.972656-35.226563c-3.328126-1.515624-5.695313-4.574218-6.332032-8.167968l-2.742187-15.4375c-1.445313-8.148438-10.957031-11.921875-17.597657-6.984375l-12.984374 9.667969c-7.253907 7.179687-13.78125 15.082031-19.488282 23.585937 3.554688 4.300781 10.1875 5.671875 15.289063 1.871094l17.183593-12.796875c6.640626-4.9375 16.152344-1.164063 17.597657 6.984375l2.742187 15.4375c.636719 3.59375 3.003906 6.652343 6.332032 8.167969l76.972656 35.226562 7.085937 3.246094 7.089844-3.246094 76.984375-35.226562c3.324219-1.515626 5.683594-4.574219 6.316406-8.167969l2.746094-15.4375c1.445312-8.148438 10.964844-11.921875 17.597656-6.984375l17.191406 12.796875c7.234376 5.394531 17.535157.382812 17.765626-8.628907v-22.328124c-.230469 9.011718-10.53125 14.023437-17.765626 8.628906zm0 0" fill="#7c3f2c"/><path d="m311.660156 113.253906-191.621094.207032.007813-.03125 38.191406-107.902344 2.453125 1.007812c25.828125 10.621094 53.3125 10.632813 79.144532.007813l12.660156-5.195313c6.601562-2.714844 13.679687 1.246094 17.097656 9.574219zm0 0" fill="#ae583e"/><path d="m200.300781 428.417969-7.085937-3.246094-76.972656-35.226563c-3.328126-1.515624-5.695313-4.574218-6.332032-8.167968l-2.742187-15.4375c-1.445313-8.148438-10.957031-11.921875-17.597657-6.984375l-17.183593 12.796875c-7.234375 5.394531-17.535157.382812-17.773438-8.628906l-.011719-83.074219-.1875-12.886719c-.125-7.847656 9.792969-11.382812 14.667969-5.21875l126.386719 159.949219zm0 0" fill="#ae583e"/><path d="m346.199219 267.5625-.195313 12.886719-.011718 83.074219c-.230469 9.011718-10.53125 14.023437-17.765626 8.628906l-17.191406-12.796875c-6.632812-4.9375-16.152344-1.164063-17.597656 6.984375l-2.746094 15.4375c-.632812 3.59375-2.992187 6.652344-6.316406 8.167968l-76.984375 35.226563-7.089844 3.246094 4.835938-6.125 126.398437-159.949219c4.863282-6.164062 14.777344-2.628906 14.664063 5.21875zm0 0" fill="#ae583e"/><path d="m343.800781 138.824219h-286.992187c-10.203125 0-18.550782-8.347657-18.550782-18.550781 0-10.203126 8.347657-18.550782 18.550782-18.550782h286.992187c10.203125 0 18.550781 8.347656 18.550781 18.550782 0 10.203124-8.347656 18.550781-18.550781 18.550781zm0 0" fill="#7c3f2c"/><path d="m203.941406 436.785156h15.589844v74.640625h-15.589844zm0 0" fill="#7c3f2c"/><g fill="#954c35"><path d="m199.058594 260.0625c-15.835938 0-28.71875-12.882812-28.71875-28.71875 0-4.304688 3.488281-7.792969 7.796875-7.792969 4.304687 0 7.792969 3.488281 7.792969 7.792969 0 7.238281 5.890624 13.128906 13.128906 13.128906 7.238281 0 13.128906-5.890625 13.128906-13.128906 0-4.304688 3.488281-7.792969 7.796875-7.792969 4.304687 0 7.796875 3.488281 7.796875 7.792969-.003906 15.835938-12.886719 28.71875-28.722656 28.71875zm0 0"/><path d="m158.476562 200.925781c0 6.863281-5.566406 12.429688-12.429687 12.429688-6.867187 0-12.429687-5.566407-12.429687-12.429688 0-6.867187 5.5625-12.429687 12.429687-12.429687 6.863281 0 12.429687 5.5625 12.429687 12.429687zm0 0"/><path d="m166.035156 180.792969c-1.148437 0-2.3125-.253907-3.410156-.789063-20.25-9.871094-37.773438-3.410156-37.949219-3.339844-4.019531 1.527344-8.527343-.492187-10.058593-4.515624-1.53125-4.027344.492187-8.527344 4.515624-10.058594.972657-.371094 24.074219-8.894532 50.324219 3.894531 3.871094 1.886719 5.476563 6.554687 3.589844 10.425781-1.351563 2.769532-4.125 4.382813-7.011719 4.382813zm0 0"/><path d="m260.933594 200.925781c0 6.863281-5.566406 12.429688-12.429688 12.429688-6.867187 0-12.429687-5.566407-12.429687-12.429688 0-6.867187 5.5625-12.429687 12.429687-12.429687 6.863282 0 12.429688 5.5625 12.429688 12.429687zm0 0"/><path d="m230.898438 183.730469c-2.679688 0-5.292969-1.382813-6.738282-3.863281-2.167968-3.710938-.929687-8.472657 2.777344-10.648438.882812-.519531 21.890625-12.664062 44.292969-10.210938 4.28125.46875 7.371093 4.320313 6.902343 8.597657-.46875 4.28125-4.3125 7.367187-8.597656 6.902343-17.191406-1.886718-34.546875 8.066407-34.71875 8.164063-1.234375.71875-2.585937 1.058594-3.917968 1.058594zm0 0"/></g><path d="m207.390625 425.171875c-.507813-1.132813-1.289063-2.117187-2.253906-2.878906l-4.835938 6.125-4.832031-6.125c-.964844.761719-1.746094 1.746093-2.253906 2.878906-.457032.988281-.707032 2.082031-.707032 3.234375v83.019531h15.589844v-83.019531c0-1.152344-.25-2.246094-.707031-3.234375zm0 0" fill="#ae583e"/><path d="m470.273438 384.75c0 46.917969-38.035157 84.953125-84.953126 84.953125-46.917968 0-84.953124-38.035156-84.953124-84.953125s38.035156-84.953125 84.953124-84.953125c46.917969 0 84.953126 38.035156 84.953126 84.953125zm0 0" fill="#f29500"/><path d="m435.800781 407.574219c-6.921875 15.3125-19.945312 25.945312-34.894531 30.332031-12.265625 3.609375-25.839844 3.003906-38.40625-2.679688-27.878906-12.609374-40.257812-45.425781-27.652344-73.304687 11.527344-25.496094 39.96875-38.03125 66.070313-30.332031 2.429687.71875 4.84375 1.613281 7.222656 2.683594 27.878906 12.609374 40.257813 45.425781 27.660156 73.300781zm0 0" fill="#d2d2d7"/><path d="m435.800781 407.574219c-6.921875 15.3125-19.945312 25.945312-34.894531 30.332031-2.433594-.714844-4.84375-1.609375-7.222656-2.679688-27.878906-12.609374-40.257813-45.425781-27.652344-73.304687 6.925781-15.308594 19.9375-25.945313 34.886719-30.332031 2.429687.71875 4.84375 1.613281 7.222656 2.683594 27.878906 12.609374 40.257813 45.425781 27.660156 73.300781zm0 0" fill="#ebebf0"/></svg>